<svg width="149" height="72" viewBox="0 0 149 72" fill="none" xmlns="http://www.w3.org/2000/svg">
<path d="M11.276 56.0682V71H2.9408V36.0909H11.0033V49.625H11.2931C11.884 48.0114 12.8499 46.75 14.1908 45.8409C15.5431 44.9318 17.1965 44.4773 19.151 44.4773C20.9919 44.4773 22.5942 44.8864 23.9578 45.7046C25.3215 46.5114 26.3783 47.6534 27.1283 49.1307C27.8897 50.608 28.2647 52.3352 28.2533 54.3125V71H19.9181V55.9489C19.9294 54.4943 19.5658 53.358 18.8272 52.5398C18.0885 51.7216 17.0488 51.3125 15.7078 51.3125C14.8328 51.3125 14.0601 51.5057 13.3897 51.8921C12.7306 52.2671 12.2135 52.8068 11.8385 53.5114C11.4749 54.2159 11.2874 55.0682 11.276 56.0682Z" fill="white"/>
<path d="M40.8371 71.4432C39.1666 71.4432 37.6837 71.1648 36.3882 70.608C35.1041 70.0398 34.0871 69.1875 33.3371 68.0511C32.5985 66.9034 32.2291 65.4659 32.2291 63.7386C32.2291 62.2841 32.4848 61.0568 32.9962 60.0568C33.5076 59.0568 34.2121 58.2443 35.1098 57.6193C36.0076 56.9943 37.0416 56.5227 38.2121 56.2046C39.3826 55.875 40.6326 55.6534 41.9621 55.5398C43.4507 55.4034 44.6496 55.2614 45.5587 55.1136C46.4678 54.9546 47.1269 54.733 47.536 54.4489C47.9564 54.1534 48.1666 53.7386 48.1666 53.2046V53.1193C48.1666 52.2443 47.8655 51.5682 47.2632 51.0909C46.661 50.6136 45.8485 50.375 44.8257 50.375C43.7235 50.375 42.8371 50.6136 42.1666 51.0909C41.4962 51.5682 41.0701 52.2273 40.8882 53.0682L33.2007 52.7955C33.428 51.2046 34.0132 49.7841 34.9564 48.5341C35.911 47.2727 37.2178 46.2841 38.8769 45.5682C40.5473 44.8409 42.553 44.4773 44.8939 44.4773C46.5644 44.4773 48.1041 44.6761 49.5132 45.0739C50.9223 45.4602 52.1496 46.0284 53.1951 46.7784C54.2405 47.5171 55.0473 48.4261 55.6155 49.5057C56.1951 50.5852 56.4848 51.8182 56.4848 53.2046V71H48.6439V67.3523H48.4394C47.9735 68.2386 47.3769 68.9886 46.6496 69.6023C45.9337 70.2159 45.0871 70.6761 44.1098 70.983C43.1439 71.2898 42.053 71.4432 40.8371 71.4432ZM43.411 65.9886C44.3087 65.9886 45.1155 65.8068 45.8314 65.4432C46.5587 65.0796 47.1382 64.5796 47.5701 63.9432C48.0019 63.2955 48.2178 62.5455 48.2178 61.6932V59.2046C47.9791 59.3296 47.6894 59.4432 47.3485 59.5455C47.0189 59.6477 46.6553 59.7443 46.2576 59.8352C45.8598 59.9261 45.4507 60.0057 45.0303 60.0739C44.6098 60.1421 44.2064 60.2046 43.8201 60.2614C43.036 60.3864 42.3655 60.5796 41.8087 60.8409C41.2632 61.1023 40.8428 61.4432 40.5473 61.8636C40.2632 62.2727 40.1212 62.7614 40.1212 63.3296C40.1212 64.1932 40.428 64.8523 41.0416 65.3068C41.6666 65.7614 42.4564 65.9886 43.411 65.9886Z" fill="white"/>
<path d="M61.5814 71V36.0909H69.9166V49.3011H70.0871C70.428 48.5057 70.911 47.7386 71.536 47C72.1723 46.2614 72.9791 45.6591 73.9564 45.1932C74.9451 44.7159 76.1269 44.4773 77.5019 44.4773C79.3201 44.4773 81.0189 44.9546 82.5985 45.9091C84.1894 46.8636 85.4735 48.3352 86.4507 50.3239C87.428 52.3125 87.9166 54.8466 87.9166 57.9261C87.9166 60.8921 87.4451 63.375 86.5019 65.375C85.5701 67.375 84.3087 68.875 82.7178 69.875C81.1382 70.875 79.3826 71.375 77.4507 71.375C76.1326 71.375 74.9905 71.1591 74.0246 70.7273C73.0587 70.2955 72.2462 69.7273 71.5871 69.0227C70.9394 68.3182 70.4394 67.5625 70.0871 66.7557H69.8314V71H61.5814ZM69.7462 57.9091C69.7462 59.3182 69.9337 60.5455 70.3087 61.5909C70.6951 62.6364 71.2462 63.4489 71.9621 64.0284C72.6894 64.5966 73.5587 64.8807 74.5701 64.8807C75.5928 64.8807 76.4621 64.5966 77.178 64.0284C77.8939 63.4489 78.4337 62.6364 78.7973 61.5909C79.1723 60.5455 79.3598 59.3182 79.3598 57.9091C79.3598 56.5 79.1723 55.2784 78.7973 54.2443C78.4337 53.2102 77.8939 52.4091 77.178 51.8409C76.4735 51.2727 75.6041 50.9886 74.5701 50.9886C73.5473 50.9886 72.678 51.2671 71.9621 51.8239C71.2462 52.3807 70.6951 53.1761 70.3087 54.2102C69.9337 55.2443 69.7462 56.4773 69.7462 57.9091Z" fill="white"/>
<path d="M92.2845 71V44.8182H100.62V71H92.2845ZM96.4607 41.7671C95.2902 41.7671 94.2846 41.3807 93.4436 40.608C92.6027 39.8239 92.1823 38.8807 92.1823 37.7784C92.1823 36.6875 92.6027 35.7557 93.4436 34.983C94.2846 34.1989 95.2902 33.8068 96.4607 33.8068C97.6425 33.8068 98.6482 34.1989 99.4777 34.983C100.319 35.7557 100.739 36.6875 100.739 37.7784C100.739 38.8807 100.319 39.8239 99.4777 40.608C98.6482 41.3807 97.6425 41.7671 96.4607 41.7671Z" fill="white"/>
<path d="M120.704 44.8182V50.9546H104.187V44.8182H120.704ZM107.647 38.5455H115.982V62.7671C115.982 63.2784 116.062 63.6932 116.221 64.0114C116.391 64.3182 116.635 64.5398 116.954 64.6761C117.272 64.8011 117.652 64.8636 118.096 64.8636C118.414 64.8636 118.749 64.8352 119.101 64.7784C119.465 64.7102 119.738 64.6534 119.919 64.608L121.181 70.625C120.783 70.7386 120.221 70.8807 119.493 71.0511C118.777 71.2216 117.919 71.3296 116.919 71.375C114.965 71.4659 113.289 71.2386 111.891 70.6932C110.505 70.1364 109.442 69.2727 108.704 68.1023C107.976 66.9318 107.624 65.4602 107.647 63.6875V38.5455Z" fill="white"/>
<path d="M147.486 52.8125L139.833 53.0171C139.753 52.4716 139.537 51.9886 139.185 51.5682C138.833 51.1364 138.373 50.8011 137.804 50.5625C137.248 50.3125 136.6 50.1875 135.861 50.1875C134.895 50.1875 134.071 50.3807 133.39 50.7671C132.719 51.1534 132.39 51.6761 132.401 52.3352C132.39 52.8466 132.594 53.2898 133.015 53.6648C133.446 54.0398 134.214 54.3409 135.316 54.5682L140.361 55.5227C142.975 56.0227 144.918 56.8523 146.191 58.0114C147.475 59.1705 148.123 60.7046 148.134 62.6136C148.123 64.4091 147.589 65.9716 146.532 67.3011C145.486 68.6307 144.054 69.6648 142.236 70.4034C140.418 71.1307 138.339 71.4943 135.998 71.4943C132.259 71.4943 129.31 70.7273 127.151 69.1932C125.003 67.6477 123.776 65.5796 123.469 62.9886L131.702 62.7841C131.884 63.7386 132.356 64.4659 133.117 64.9659C133.878 65.4659 134.85 65.7159 136.032 65.7159C137.1 65.7159 137.969 65.5171 138.64 65.1193C139.31 64.7216 139.651 64.1932 139.662 63.5341C139.651 62.9432 139.39 62.4716 138.878 62.1193C138.367 61.7557 137.566 61.4716 136.475 61.2671L131.907 60.3977C129.282 59.9205 127.327 59.0398 126.043 57.7557C124.759 56.4602 124.123 54.8125 124.134 52.8125C124.123 51.0625 124.589 49.5682 125.532 48.3296C126.475 47.0796 127.816 46.125 129.554 45.4659C131.293 44.8068 133.344 44.4773 135.708 44.4773C139.253 44.4773 142.049 45.2216 144.094 46.7102C146.14 48.1875 147.27 50.2216 147.486 52.8125Z" fill="white"/>
<rect x="0.798706" y="0.5" width="15" height="15" rx="3.5" fill="#18181B" stroke="#27272A"/>
<rect x="20.7987" y="0.5" width="15" height="15" rx="3.5" fill="#4C1D95" stroke="#6D28D9"/>
<rect x="40.7987" y="0.5" width="15" height="15" rx="3.5" fill="#5B21B6" stroke="#7C3AED"/>
<rect x="60.7987" y="0.5" width="15" height="15" rx="3.5" fill="#6D28D9" stroke="#8B5CF6"/>
<rect x="80.7987" y="0.5" width="15" height="15" rx="3.5" fill="#7C3AED" stroke="#A78BFA"/>
<rect x="100.799" y="0.5" width="15" height="15" rx="3.5" fill="#8B5CF6" stroke="#C4B5FD"/>
</svg>
